<mxfile host="app.diagrams.net" modified="2023-09-15T05:54:32.288Z" agent="Mozilla/5.0 (Windows NT 10.0; Win64; x64) AppleWebKit/537.36 (KHTML, like Gecko) Chrome/116.0.0.0 Safari/537.36 Edg/116.0.1938.81" etag="_4yNckCeT6C-197Qcu8D" version="21.7.5" type="device">
  <diagram name="Page-1" id="c_7bYzpcDiTVBP_YZ2Dy">
    <mxGraphModel dx="1434" dy="788" grid="1" gridSize="50" guides="1" tooltips="1" connect="1" arrows="1" fold="1" page="1" pageScale="1" pageWidth="1200" pageHeight="1920" background="#FFFFFF" math="0" shadow="0">
      <root>
        <mxCell id="0" />
        <mxCell id="1" parent="0" />
        <mxCell id="U2halT7WsD8vEZK7Lfxs-25" style="edgeStyle=orthogonalEdgeStyle;rounded=0;orthogonalLoop=1;jettySize=auto;html=1;strokeColor=none;" parent="1" edge="1">
          <mxGeometry relative="1" as="geometry">
            <mxPoint x="520" y="250" as="targetPoint" />
            <mxPoint x="520" y="190" as="sourcePoint" />
            <Array as="points">
              <mxPoint x="520" y="200" />
              <mxPoint x="520" y="200" />
            </Array>
          </mxGeometry>
        </mxCell>
        <object label="Bank" customers="List&lt;Customer&gt;" id="U2halT7WsD8vEZK7Lfxs-1">
          <mxCell style="swimlane;fontStyle=1;align=center;verticalAlign=top;childLayout=stackLayout;horizontal=1;startSize=26;horizontalStack=0;resizeParent=1;resizeParentMax=0;resizeLast=0;collapsible=1;marginBottom=0;whiteSpace=wrap;html=1;" parent="1" vertex="1">
            <mxGeometry x="370" y="50" width="300" height="156" as="geometry" />
          </mxCell>
        </object>
        <mxCell id="U2halT7WsD8vEZK7Lfxs-2" value="name: String&lt;br&gt;nationalCurrency: Currency&lt;br&gt;customers: List&amp;lt;Customer&amp;gt;" style="text;strokeColor=none;fillColor=none;align=left;verticalAlign=top;spacingLeft=4;spacingRight=4;overflow=hidden;rotatable=0;points=[[0,0.5],[1,0.5]];portConstraint=eastwest;whiteSpace=wrap;html=1;" parent="U2halT7WsD8vEZK7Lfxs-1" vertex="1">
          <mxGeometry y="26" width="300" height="50" as="geometry" />
        </mxCell>
        <mxCell id="U2halT7WsD8vEZK7Lfxs-3" value="" style="line;strokeWidth=1;fillColor=none;align=left;verticalAlign=middle;spacingTop=-1;spacingLeft=3;spacingRight=3;rotatable=0;labelPosition=right;points=[];portConstraint=eastwest;strokeColor=inherit;" parent="U2halT7WsD8vEZK7Lfxs-1" vertex="1">
          <mxGeometry y="76" width="300" height="8" as="geometry" />
        </mxCell>
        <mxCell id="U2halT7WsD8vEZK7Lfxs-4" value="+ getCustomerById(): Customer&lt;br&gt;+ addCustomer(customer): void&lt;br&gt;+ removeCustomer(customerId): boolean&lt;br&gt;+ createAccount(customerId, accountType): void" style="text;strokeColor=none;fillColor=none;align=left;verticalAlign=top;spacingLeft=4;spacingRight=4;overflow=hidden;rotatable=0;points=[[0,0.5],[1,0.5]];portConstraint=eastwest;whiteSpace=wrap;html=1;" parent="U2halT7WsD8vEZK7Lfxs-1" vertex="1">
          <mxGeometry y="84" width="300" height="72" as="geometry" />
        </mxCell>
        <object label="Customer" customers="List&lt;Customer&gt;" id="U2halT7WsD8vEZK7Lfxs-18">
          <mxCell style="swimlane;fontStyle=1;align=center;verticalAlign=top;childLayout=stackLayout;horizontal=1;startSize=26;horizontalStack=0;resizeParent=1;resizeParentMax=0;resizeLast=0;collapsible=1;marginBottom=0;whiteSpace=wrap;html=1;" parent="1" vertex="1">
            <mxGeometry x="100" y="280" width="300" height="180" as="geometry" />
          </mxCell>
        </object>
        <mxCell id="U2halT7WsD8vEZK7Lfxs-19" value="customerId: int&lt;br&gt;firstName: String&lt;br&gt;lastName: String&lt;br&gt;age: int&lt;br&gt;address: String&lt;br&gt;phone: String&lt;br&gt;accounts: List&amp;lt;Account&amp;gt;" style="text;strokeColor=none;fillColor=none;align=left;verticalAlign=top;spacingLeft=4;spacingRight=4;overflow=hidden;rotatable=0;points=[[0,0.5],[1,0.5]];portConstraint=eastwest;whiteSpace=wrap;html=1;" parent="U2halT7WsD8vEZK7Lfxs-18" vertex="1">
          <mxGeometry y="26" width="300" height="104" as="geometry" />
        </mxCell>
        <mxCell id="U2halT7WsD8vEZK7Lfxs-20" value="" style="line;strokeWidth=1;fillColor=none;align=left;verticalAlign=middle;spacingTop=-1;spacingLeft=3;spacingRight=3;rotatable=0;labelPosition=right;points=[];portConstraint=eastwest;strokeColor=inherit;" parent="U2halT7WsD8vEZK7Lfxs-18" vertex="1">
          <mxGeometry y="130" width="300" height="8" as="geometry" />
        </mxCell>
        <mxCell id="U2halT7WsD8vEZK7Lfxs-21" value="+&amp;nbsp;addAccount(account): void&lt;br data-darkreader-inline-border=&quot;&quot; style=&quot;border-color: var(--darkreader-border--border-color); --darkreader-inline-border: var(--darkreader-border--darkreader-border--border-color);&quot;&gt;+&amp;nbsp;createCustomerFromInput(): Customer" style="text;strokeColor=none;fillColor=none;align=left;verticalAlign=top;spacingLeft=4;spacingRight=4;overflow=hidden;rotatable=0;points=[[0,0.5],[1,0.5]];portConstraint=eastwest;whiteSpace=wrap;html=1;" parent="U2halT7WsD8vEZK7Lfxs-18" vertex="1">
          <mxGeometry y="138" width="300" height="42" as="geometry" />
        </mxCell>
        <mxCell id="U2halT7WsD8vEZK7Lfxs-22" value="" style="endArrow=block;endFill=1;html=1;edgeStyle=orthogonalEdgeStyle;align=left;verticalAlign=top;rounded=0;entryX=0.489;entryY=0.001;entryDx=0;entryDy=0;entryPerimeter=0;" parent="1" edge="1">
          <mxGeometry x="-1" y="27" relative="1" as="geometry">
            <mxPoint x="450" y="251" as="sourcePoint" />
            <mxPoint x="260.00000000000006" y="279.23" as="targetPoint" />
            <mxPoint x="18" y="-7" as="offset" />
          </mxGeometry>
        </mxCell>
        <mxCell id="U2halT7WsD8vEZK7Lfxs-23" value="1" style="edgeLabel;resizable=0;html=1;align=left;verticalAlign=bottom;" parent="U2halT7WsD8vEZK7Lfxs-22" connectable="0" vertex="1">
          <mxGeometry x="-1" relative="1" as="geometry">
            <mxPoint y="149" as="offset" />
          </mxGeometry>
        </mxCell>
        <mxCell id="U2halT7WsD8vEZK7Lfxs-27" value="" style="endArrow=none;html=1;edgeStyle=orthogonalEdgeStyle;rounded=0;entryX=0.5;entryY=1.002;entryDx=0;entryDy=0;entryPerimeter=0;" parent="1" edge="1">
          <mxGeometry relative="1" as="geometry">
            <mxPoint x="450" y="249.97" as="sourcePoint" />
            <mxPoint x="452.0000000000002" y="190.114" as="targetPoint" />
            <Array as="points">
              <mxPoint x="452" y="249.97" />
            </Array>
          </mxGeometry>
        </mxCell>
        <mxCell id="U2halT7WsD8vEZK7Lfxs-30" value="0 .. n" style="edgeLabel;resizable=0;html=1;align=left;verticalAlign=bottom;" parent="1" connectable="0" vertex="1">
          <mxGeometry x="280" y="250" as="geometry" />
        </mxCell>
        <object label="&lt;i style=&quot;&quot;&gt;Account&lt;/i&gt;" customers="List&lt;Customer&gt;" id="U2halT7WsD8vEZK7Lfxs-31">
          <mxCell style="swimlane;fontStyle=1;align=center;verticalAlign=top;childLayout=stackLayout;horizontal=1;startSize=26;horizontalStack=0;resizeParent=1;resizeParentMax=0;resizeLast=0;collapsible=1;marginBottom=0;whiteSpace=wrap;html=1;" parent="1" vertex="1">
            <mxGeometry x="600" y="300" width="300" height="160" as="geometry" />
          </mxCell>
        </object>
        <mxCell id="U2halT7WsD8vEZK7Lfxs-32" value="number: int&lt;br&gt;balance: double&lt;br&gt;currency: Currency&lt;br&gt;transaction: List&amp;lt;Transaction&amp;gt;" style="text;strokeColor=none;fillColor=none;align=left;verticalAlign=top;spacingLeft=4;spacingRight=4;overflow=hidden;rotatable=0;points=[[0,0.5],[1,0.5]];portConstraint=eastwest;whiteSpace=wrap;html=1;" parent="U2halT7WsD8vEZK7Lfxs-31" vertex="1">
          <mxGeometry y="26" width="300" height="64" as="geometry" />
        </mxCell>
        <mxCell id="U2halT7WsD8vEZK7Lfxs-33" value="" style="line;strokeWidth=1;fillColor=none;align=left;verticalAlign=middle;spacingTop=-1;spacingLeft=3;spacingRight=3;rotatable=0;labelPosition=right;points=[];portConstraint=eastwest;strokeColor=inherit;" parent="U2halT7WsD8vEZK7Lfxs-31" vertex="1">
          <mxGeometry y="90" width="300" height="8" as="geometry" />
        </mxCell>
        <mxCell id="U2halT7WsD8vEZK7Lfxs-34" value="+&amp;nbsp;addTransaction(transaction): void&lt;br&gt;+ deposit(amount): void&lt;br&gt;+ withdraw(amount): void" style="text;strokeColor=none;fillColor=none;align=left;verticalAlign=top;spacingLeft=4;spacingRight=4;overflow=hidden;rotatable=0;points=[[0,0.5],[1,0.5]];portConstraint=eastwest;whiteSpace=wrap;html=1;" parent="U2halT7WsD8vEZK7Lfxs-31" vertex="1">
          <mxGeometry y="98" width="300" height="62" as="geometry" />
        </mxCell>
        <mxCell id="U2halT7WsD8vEZK7Lfxs-40" value="" style="endArrow=none;html=1;edgeStyle=orthogonalEdgeStyle;rounded=0;exitX=0.693;exitY=1.011;exitDx=0;exitDy=0;exitPerimeter=0;entryX=0.5;entryY=0;entryDx=0;entryDy=0;shape=link;" parent="1" source="U2halT7WsD8vEZK7Lfxs-4" target="U2halT7WsD8vEZK7Lfxs-31" edge="1">
          <mxGeometry relative="1" as="geometry">
            <mxPoint x="800" y="100" as="sourcePoint" />
            <mxPoint x="700" y="300" as="targetPoint" />
            <Array as="points">
              <mxPoint x="578" y="250" />
              <mxPoint x="750" y="250" />
            </Array>
          </mxGeometry>
        </mxCell>
        <mxCell id="U2halT7WsD8vEZK7Lfxs-43" value="create" style="edgeLabel;resizable=0;html=1;align=left;verticalAlign=bottom;" parent="1" connectable="0" vertex="1">
          <mxGeometry x="669.9999999999998" y="250" as="geometry" />
        </mxCell>
        <mxCell id="U2halT7WsD8vEZK7Lfxs-44" value="" style="endArrow=block;endFill=1;html=1;edgeStyle=orthogonalEdgeStyle;align=left;verticalAlign=top;rounded=0;entryX=0;entryY=0.032;entryDx=0;entryDy=0;entryPerimeter=0;exitX=1;exitY=0.904;exitDx=0;exitDy=0;exitPerimeter=0;" parent="1" source="U2halT7WsD8vEZK7Lfxs-19" target="U2halT7WsD8vEZK7Lfxs-34" edge="1">
          <mxGeometry x="-1" y="27" relative="1" as="geometry">
            <mxPoint x="570" y="550" as="sourcePoint" />
            <mxPoint x="300" y="550" as="targetPoint" />
            <mxPoint x="18" y="-7" as="offset" />
          </mxGeometry>
        </mxCell>
        <mxCell id="U2halT7WsD8vEZK7Lfxs-45" value="1" style="edgeLabel;resizable=0;html=1;align=left;verticalAlign=bottom;" parent="U2halT7WsD8vEZK7Lfxs-44" connectable="0" vertex="1">
          <mxGeometry x="-1" relative="1" as="geometry">
            <mxPoint y="-150" as="offset" />
          </mxGeometry>
        </mxCell>
        <mxCell id="U2halT7WsD8vEZK7Lfxs-46" value="1 .. n" style="edgeLabel;resizable=0;html=1;align=left;verticalAlign=bottom;" parent="1" connectable="0" vertex="1">
          <mxGeometry x="550" y="400" as="geometry" />
        </mxCell>
        <object label="CheckingAccount" customers="List&lt;Customer&gt;" id="U2halT7WsD8vEZK7Lfxs-47">
          <mxCell style="swimlane;fontStyle=1;align=center;verticalAlign=top;childLayout=stackLayout;horizontal=1;startSize=26;horizontalStack=0;resizeParent=1;resizeParentMax=0;resizeLast=0;collapsible=1;marginBottom=0;whiteSpace=wrap;html=1;" parent="1" vertex="1">
            <mxGeometry x="400" y="550" width="300" height="160" as="geometry" />
          </mxCell>
        </object>
        <mxCell id="U2halT7WsD8vEZK7Lfxs-48" value="number: int&lt;br&gt;balance: double&lt;br&gt;currency: Currency&lt;br&gt;transaction: List&amp;lt;Transaction&amp;gt;" style="text;strokeColor=none;fillColor=none;align=left;verticalAlign=top;spacingLeft=4;spacingRight=4;overflow=hidden;rotatable=0;points=[[0,0.5],[1,0.5]];portConstraint=eastwest;whiteSpace=wrap;html=1;" parent="U2halT7WsD8vEZK7Lfxs-47" vertex="1">
          <mxGeometry y="26" width="300" height="64" as="geometry" />
        </mxCell>
        <mxCell id="U2halT7WsD8vEZK7Lfxs-49" value="" style="line;strokeWidth=1;fillColor=none;align=left;verticalAlign=middle;spacingTop=-1;spacingLeft=3;spacingRight=3;rotatable=0;labelPosition=right;points=[];portConstraint=eastwest;strokeColor=inherit;" parent="U2halT7WsD8vEZK7Lfxs-47" vertex="1">
          <mxGeometry y="90" width="300" height="8" as="geometry" />
        </mxCell>
        <mxCell id="U2halT7WsD8vEZK7Lfxs-50" value="+&amp;nbsp;addTransaction(transaction): void&lt;br&gt;+ deposit(amount): void&lt;br&gt;+ withdraw(amount): void" style="text;strokeColor=none;fillColor=none;align=left;verticalAlign=top;spacingLeft=4;spacingRight=4;overflow=hidden;rotatable=0;points=[[0,0.5],[1,0.5]];portConstraint=eastwest;whiteSpace=wrap;html=1;" parent="U2halT7WsD8vEZK7Lfxs-47" vertex="1">
          <mxGeometry y="98" width="300" height="62" as="geometry" />
        </mxCell>
        <object label="SavingsAccount" customers="List&lt;Customer&gt;" id="U2halT7WsD8vEZK7Lfxs-51">
          <mxCell style="swimlane;fontStyle=1;align=center;verticalAlign=top;childLayout=stackLayout;horizontal=1;startSize=26;horizontalStack=0;resizeParent=1;resizeParentMax=0;resizeLast=0;collapsible=1;marginBottom=0;whiteSpace=wrap;html=1;" parent="1" vertex="1">
            <mxGeometry x="750" y="550" width="300" height="160" as="geometry" />
          </mxCell>
        </object>
        <mxCell id="U2halT7WsD8vEZK7Lfxs-52" value="number: int&lt;br&gt;balance: double&lt;br&gt;currency: Currency&lt;br&gt;transaction: List&amp;lt;Transaction&amp;gt;" style="text;strokeColor=none;fillColor=none;align=left;verticalAlign=top;spacingLeft=4;spacingRight=4;overflow=hidden;rotatable=0;points=[[0,0.5],[1,0.5]];portConstraint=eastwest;whiteSpace=wrap;html=1;" parent="U2halT7WsD8vEZK7Lfxs-51" vertex="1">
          <mxGeometry y="26" width="300" height="64" as="geometry" />
        </mxCell>
        <mxCell id="U2halT7WsD8vEZK7Lfxs-53" value="" style="line;strokeWidth=1;fillColor=none;align=left;verticalAlign=middle;spacingTop=-1;spacingLeft=3;spacingRight=3;rotatable=0;labelPosition=right;points=[];portConstraint=eastwest;strokeColor=inherit;" parent="U2halT7WsD8vEZK7Lfxs-51" vertex="1">
          <mxGeometry y="90" width="300" height="8" as="geometry" />
        </mxCell>
        <mxCell id="U2halT7WsD8vEZK7Lfxs-54" value="+&amp;nbsp;addTransaction(transaction): void&lt;br&gt;+ deposit(amount): void&lt;br&gt;+ withdraw(amount): void" style="text;strokeColor=none;fillColor=none;align=left;verticalAlign=top;spacingLeft=4;spacingRight=4;overflow=hidden;rotatable=0;points=[[0,0.5],[1,0.5]];portConstraint=eastwest;whiteSpace=wrap;html=1;" parent="U2halT7WsD8vEZK7Lfxs-51" vertex="1">
          <mxGeometry y="98" width="300" height="62" as="geometry" />
        </mxCell>
        <mxCell id="U2halT7WsD8vEZK7Lfxs-55" value="" style="endArrow=none;html=1;edgeStyle=orthogonalEdgeStyle;rounded=0;entryX=0.5;entryY=0;entryDx=0;entryDy=0;exitX=0.517;exitY=1.041;exitDx=0;exitDy=0;exitPerimeter=0;" parent="1" edge="1">
          <mxGeometry relative="1" as="geometry">
            <mxPoint x="749.9999999999999" y="462.54200000000014" as="sourcePoint" />
            <mxPoint x="544.9000000000002" y="550" as="targetPoint" />
            <Array as="points">
              <mxPoint x="750" y="500" />
              <mxPoint x="545" y="500" />
            </Array>
          </mxGeometry>
        </mxCell>
        <mxCell id="U2halT7WsD8vEZK7Lfxs-58" value="" style="endArrow=none;html=1;edgeStyle=orthogonalEdgeStyle;rounded=0;entryX=0.5;entryY=0;entryDx=0;entryDy=0;exitX=0.501;exitY=1.074;exitDx=0;exitDy=0;exitPerimeter=0;" parent="1" edge="1">
          <mxGeometry relative="1" as="geometry">
            <mxPoint x="750.2999999999997" y="459.9980000000001" as="sourcePoint" />
            <mxPoint x="899.9999999999998" y="545.41" as="targetPoint" />
            <Array as="points">
              <mxPoint x="750" y="500" />
              <mxPoint x="900" y="500" />
            </Array>
          </mxGeometry>
        </mxCell>
        <object label="Transaction" customers="List&lt;Customer&gt;" id="U2halT7WsD8vEZK7Lfxs-59">
          <mxCell style="swimlane;fontStyle=1;align=center;verticalAlign=top;childLayout=stackLayout;horizontal=1;startSize=26;horizontalStack=0;resizeParent=1;resizeParentMax=0;resizeLast=0;collapsible=1;marginBottom=0;whiteSpace=wrap;html=1;" parent="1" vertex="1">
            <mxGeometry x="1200" y="146" width="300" height="134" as="geometry" />
          </mxCell>
        </object>
        <mxCell id="U2halT7WsD8vEZK7Lfxs-60" value="transactionId: int&lt;br&gt;fromAccountNumber: int&lt;br&gt;toAccountNumber: int&lt;br&gt;amount: double&lt;br&gt;currency: Currency&lt;br&gt;timestamp: Instant" style="text;strokeColor=none;fillColor=none;align=left;verticalAlign=top;spacingLeft=4;spacingRight=4;overflow=hidden;rotatable=0;points=[[0,0.5],[1,0.5]];portConstraint=eastwest;whiteSpace=wrap;html=1;" parent="U2halT7WsD8vEZK7Lfxs-59" vertex="1">
          <mxGeometry y="26" width="300" height="100" as="geometry" />
        </mxCell>
        <mxCell id="U2halT7WsD8vEZK7Lfxs-61" value="" style="line;strokeWidth=1;fillColor=none;align=left;verticalAlign=middle;spacingTop=-1;spacingLeft=3;spacingRight=3;rotatable=0;labelPosition=right;points=[];portConstraint=eastwest;strokeColor=inherit;" parent="U2halT7WsD8vEZK7Lfxs-59" vertex="1">
          <mxGeometry y="126" width="300" height="8" as="geometry" />
        </mxCell>
        <object label="Currency" customers="List&lt;Customer&gt;" id="U2halT7WsD8vEZK7Lfxs-67">
          <mxCell style="swimlane;fontStyle=1;align=center;verticalAlign=top;childLayout=stackLayout;horizontal=1;startSize=26;horizontalStack=0;resizeParent=1;resizeParentMax=0;resizeLast=0;collapsible=1;marginBottom=0;whiteSpace=wrap;html=1;" parent="1" vertex="1">
            <mxGeometry x="1200" y="350" width="300" height="100" as="geometry" />
          </mxCell>
        </object>
        <mxCell id="U2halT7WsD8vEZK7Lfxs-68" value="fullName: String" style="text;strokeColor=none;fillColor=none;align=left;verticalAlign=top;spacingLeft=4;spacingRight=4;overflow=hidden;rotatable=0;points=[[0,0.5],[1,0.5]];portConstraint=eastwest;whiteSpace=wrap;html=1;" parent="U2halT7WsD8vEZK7Lfxs-67" vertex="1">
          <mxGeometry y="26" width="300" height="24" as="geometry" />
        </mxCell>
        <mxCell id="U2halT7WsD8vEZK7Lfxs-69" value="" style="line;strokeWidth=1;fillColor=none;align=left;verticalAlign=middle;spacingTop=-1;spacingLeft=3;spacingRight=3;rotatable=0;labelPosition=right;points=[];portConstraint=eastwest;strokeColor=inherit;" parent="U2halT7WsD8vEZK7Lfxs-67" vertex="1">
          <mxGeometry y="50" width="300" height="8" as="geometry" />
        </mxCell>
        <mxCell id="U2halT7WsD8vEZK7Lfxs-70" value="+ getFullName(): String" style="text;strokeColor=none;fillColor=none;align=left;verticalAlign=top;spacingLeft=4;spacingRight=4;overflow=hidden;rotatable=0;points=[[0,0.5],[1,0.5]];portConstraint=eastwest;whiteSpace=wrap;html=1;" parent="U2halT7WsD8vEZK7Lfxs-67" vertex="1">
          <mxGeometry y="58" width="300" height="42" as="geometry" />
        </mxCell>
        <mxCell id="U2halT7WsD8vEZK7Lfxs-73" value="" style="endArrow=block;endFill=1;html=1;edgeStyle=orthogonalEdgeStyle;align=left;verticalAlign=top;rounded=0;exitX=1;exitY=0.904;exitDx=0;exitDy=0;exitPerimeter=0;" parent="1" edge="1">
          <mxGeometry x="-1" y="27" relative="1" as="geometry">
            <mxPoint x="900" y="399.11" as="sourcePoint" />
            <mxPoint x="1200" y="400" as="targetPoint" />
            <mxPoint x="18" y="-7" as="offset" />
            <Array as="points">
              <mxPoint x="1051" y="399" />
              <mxPoint x="1200" y="400" />
            </Array>
          </mxGeometry>
        </mxCell>
        <mxCell id="U2halT7WsD8vEZK7Lfxs-71" value="" style="endArrow=block;endFill=1;html=1;edgeStyle=orthogonalEdgeStyle;align=left;verticalAlign=top;rounded=0;entryX=0.5;entryY=0;entryDx=0;entryDy=0;exitX=0.5;exitY=1;exitDx=0;exitDy=0;" parent="1" source="U2halT7WsD8vEZK7Lfxs-59" target="U2halT7WsD8vEZK7Lfxs-67" edge="1">
          <mxGeometry x="-1" y="27" relative="1" as="geometry">
            <mxPoint x="900" y="221.65999999999997" as="sourcePoint" />
            <mxPoint x="1100" y="221.65999999999997" as="targetPoint" />
            <mxPoint x="18" y="-7" as="offset" />
          </mxGeometry>
        </mxCell>
        <mxCell id="6la7xy1zlnZRBBJrHEmu-1" value="«interface»&lt;br&gt;&lt;i&gt;TransactionExecutor&lt;/i&gt;" style="html=1;whiteSpace=wrap;" vertex="1" parent="1">
          <mxGeometry x="940" y="146" width="160" height="50" as="geometry" />
        </mxCell>
        <mxCell id="6la7xy1zlnZRBBJrHEmu-6" value="" style="endArrow=block;dashed=1;endFill=0;endSize=12;html=1;rounded=0;entryX=0.5;entryY=1;entryDx=0;entryDy=0;exitX=0.672;exitY=-0.035;exitDx=0;exitDy=0;exitPerimeter=0;" edge="1" parent="1" source="U2halT7WsD8vEZK7Lfxs-31" target="6la7xy1zlnZRBBJrHEmu-1">
          <mxGeometry width="160" relative="1" as="geometry">
            <mxPoint x="1000" y="250" as="sourcePoint" />
            <mxPoint x="760" y="450" as="targetPoint" />
            <Array as="points">
              <mxPoint x="800" y="250" />
              <mxPoint x="1020" y="250" />
            </Array>
          </mxGeometry>
        </mxCell>
        <mxCell id="6la7xy1zlnZRBBJrHEmu-7" value="«interface»&lt;br&gt;&lt;i&gt;ExchangeRateProvider&lt;/i&gt;" style="html=1;whiteSpace=wrap;" vertex="1" parent="1">
          <mxGeometry x="1220" y="500" width="160" height="50" as="geometry" />
        </mxCell>
        <object label="LocalExchangeRateProvider" customers="List&lt;Customer&gt;" id="6la7xy1zlnZRBBJrHEmu-8">
          <mxCell style="swimlane;fontStyle=1;align=center;verticalAlign=top;childLayout=stackLayout;horizontal=1;startSize=26;horizontalStack=0;resizeParent=1;resizeParentMax=0;resizeLast=0;collapsible=1;marginBottom=0;whiteSpace=wrap;html=1;" vertex="1" parent="1">
            <mxGeometry x="1100" y="610" width="400" height="100" as="geometry" />
          </mxCell>
        </object>
        <mxCell id="6la7xy1zlnZRBBJrHEmu-9" value="exchangeRateMap: Map&amp;lt;String, Double&amp;gt;" style="text;strokeColor=none;fillColor=none;align=left;verticalAlign=top;spacingLeft=4;spacingRight=4;overflow=hidden;rotatable=0;points=[[0,0.5],[1,0.5]];portConstraint=eastwest;whiteSpace=wrap;html=1;" vertex="1" parent="6la7xy1zlnZRBBJrHEmu-8">
          <mxGeometry y="26" width="400" height="24" as="geometry" />
        </mxCell>
        <mxCell id="6la7xy1zlnZRBBJrHEmu-10" value="" style="line;strokeWidth=1;fillColor=none;align=left;verticalAlign=middle;spacingTop=-1;spacingLeft=3;spacingRight=3;rotatable=0;labelPosition=right;points=[];portConstraint=eastwest;strokeColor=inherit;" vertex="1" parent="6la7xy1zlnZRBBJrHEmu-8">
          <mxGeometry y="50" width="400" height="8" as="geometry" />
        </mxCell>
        <mxCell id="6la7xy1zlnZRBBJrHEmu-11" value="+ double getExchangeRate(sourceCurrency, targetCurrency, date)" style="text;strokeColor=none;fillColor=none;align=left;verticalAlign=top;spacingLeft=4;spacingRight=4;overflow=hidden;rotatable=0;points=[[0,0.5],[1,0.5]];portConstraint=eastwest;whiteSpace=wrap;html=1;" vertex="1" parent="6la7xy1zlnZRBBJrHEmu-8">
          <mxGeometry y="58" width="400" height="42" as="geometry" />
        </mxCell>
        <mxCell id="6la7xy1zlnZRBBJrHEmu-12" style="edgeStyle=orthogonalEdgeStyle;rounded=0;orthogonalLoop=1;jettySize=auto;html=1;exitX=1;exitY=0.5;exitDx=0;exitDy=0;entryX=0;entryY=0.28;entryDx=0;entryDy=0;entryPerimeter=0;" edge="1" parent="1" source="U2halT7WsD8vEZK7Lfxs-32" target="U2halT7WsD8vEZK7Lfxs-60">
          <mxGeometry relative="1" as="geometry">
            <mxPoint x="1000" y="350" as="targetPoint" />
            <Array as="points">
              <mxPoint x="1150" y="358" />
              <mxPoint x="1150" y="200" />
            </Array>
          </mxGeometry>
        </mxCell>
        <mxCell id="6la7xy1zlnZRBBJrHEmu-13" value="" style="endArrow=block;dashed=1;endFill=0;endSize=12;html=1;rounded=0;" edge="1" parent="1" source="6la7xy1zlnZRBBJrHEmu-8">
          <mxGeometry width="160" relative="1" as="geometry">
            <mxPoint x="750" y="450" as="sourcePoint" />
            <mxPoint x="1300" y="550" as="targetPoint" />
          </mxGeometry>
        </mxCell>
      </root>
    </mxGraphModel>
  </diagram>
</mxfile>
